<?xml version="1.0" encoding="UTF-8" standalone="no"?>
<svg width="100" height="100" viewBox="0 0 100 100" xmlns="http://www.w3.org/2000/svg">
  <defs>
    <linearGradient id="goldGradient" x1="0%" y1="0%" x2="100%" y2="100%">
      <stop offset="0%" style="stop-color:#8D6A3F;stop-opacity:0.4" />
      <stop offset="50%" style="stop-color:#C49A44;stop-opacity:0.5" />
      <stop offset="100%" style="stop-color:#9F8054;stop-opacity:0.4" />
    </linearGradient>
  </defs>

  <!-- Corner flourish -->
  <path d="M0,0 L80,0 C70,10 60,30 50,60 C40,30 20,10 0,20 Z" 
        fill="url(#goldGradient)" stroke="#8D6A3F" stroke-width="0.5" opacity="0.8"/>
  
  <!-- Inner decorative lines -->
  <path d="M10,0 C15,15 25,25 50,40 C25,25 15,15 0,10" 
        fill="none" stroke="#8D6A3F" stroke-width="0.8" opacity="0.6"/>
  
  <!-- Decorative circle -->
  <circle cx="20" cy="20" r="8" fill="none" stroke="#8D6A3F" stroke-width="0.8" opacity="0.7"/>
  
  <!-- Stylized lotus or imperial symbol -->
  <path d="M20,15 C24,19 28,17 32,15 C28,22 28,28 20,32 C12,28 12,22 8,15 C12,17 16,19 20,15Z" 
        fill="url(#goldGradient)" opacity="0.7"/>
</svg>