
<?xml version="1.0" encoding="UTF-8" standalone="no"?>
<svg width="120" height="120" viewBox="0 0 120 120" xmlns="http://www.w3.org/2000/svg">
  <defs>
    <linearGradient id="goldGradient" x1="0%" y1="0%" x2="100%" y2="100%">
      <stop offset="0%" style="stop-color:#8D6A3F;stop-opacity:0.2" />
      <stop offset="50%" style="stop-color:#C49A44;stop-opacity:0.3" />
      <stop offset="100%" style="stop-color:#9F8054;stop-opacity:0.2" />
    </linearGradient>
  </defs>

  <path d="M0,0 L120,0 C100,20 85,45 75,75 C65,45 45,20 0,30 Z" 
        fill="url(#goldGradient)" stroke="#8D6A3F" stroke-width="0.5" opacity="0.8"/>
  
  <path d="M20,0 C30,30 50,50 75,65 C50,50 30,30 0,20" 
        fill="none" stroke="#8D6A3F" stroke-width="0.5" opacity="0.4"/>
  
  <circle cx="35" cy="35" r="12" fill="none" stroke="#8D6A3F" stroke-width="0.5" opacity="0.5"/>
  
  <path d="M35,30 C40,35 45,33 50,30 C45,38 45,45 35,50 C25,45 25,38 20,30 C25,33 30,35 35,30Z" 
        fill="url(#goldGradient)" opacity="0.6"/>
</svg>
