
<?xml version="1.0" encoding="UTF-8" standalone="no"?>
<svg width="200" height="200" viewBox="0 0 200 200" xmlns="http://www.w3.org/2000/svg">
  <defs>
    <linearGradient id="goldGradient" x1="0%" y1="0%" x2="100%" y2="100%">
      <stop offset="0%" style="stop-color:#D4AF37;stop-opacity:0.6" />
      <stop offset="50%" style="stop-color:#B5935A;stop-opacity:0.7" />
      <stop offset="100%" style="stop-color:#D4AF37;stop-opacity:0.6" />
    </linearGradient>
  </defs>

  <g>
    <g transform="translate(100, 100)">
      <circle cx="0" cy="0" r="15" fill="none" stroke="#D4AF37" stroke-width="0.5" opacity="0.8" />
      <path d="M0,-8 C3,0 8,-3 12,-8 C8,-3 12,3 8,8 C3,8 0,12 -8,8 C-3,3 -8,-3 -8,-8 C-3,-3 -3,-8 0,-8Z" 
            fill="url(#goldGradient)" opacity="0.7" />
      <circle cx="0" cy="0" r="3" fill="#D4AF37" opacity="0.8" />
    </g>

    <g transform="translate(0, 0)">
      <use href="#imperial-motif" x="0" y="0" />
    </g>
    <g transform="translate(0, 200)">
      <use href="#imperial-motif" x="0" y="0" />
    </g>
    <g transform="translate(200, 0)">
      <use href="#imperial-motif" x="0" y="0" />
    </g>
    <g transform="translate(200, 200)">
      <use href="#imperial-motif" x="0" y="0" />
    </g>
  </g>

  <g transform="translate(50, 50)">
    <circle cx="0" cy="0" r="10" fill="none" stroke="#D4AF37" stroke-width="0.3" opacity="0.7" />
    <path d="M0,-6 C4,0 6,3 0,6 C-4,3 -6,0 0,-6Z" fill="#D4AF37" opacity="0.6" />
  </g>

  <g transform="translate(150, 50)">
    <circle cx="0" cy="0" r="8" fill="none" stroke="#D4AF37" stroke-width="0.3" opacity="0.7" />
    <rect x="-4" y="-4" width="8" height="8" fill="none" stroke="#D4AF37" stroke-width="0.3" opacity="0.6" />
  </g>

  <g transform="translate(50, 150)">
    <rect x="-5" y="-5" width="10" height="10" fill="none" stroke="#D4AF37" stroke-width="0.3" opacity="0.6" transform="rotate(45)" />
    <circle cx="0" cy="0" r="3" fill="#D4AF37" opacity="0.6" />
  </g>

  <g transform="translate(150, 150)">
    <path d="M-8,0 L0,-8 L8,0 L0,8 Z" fill="none" stroke="#D4AF37" stroke-width="0.3" opacity="0.7" />
    <circle cx="0" cy="0" r="3" fill="#D4AF37" opacity="0.6" />
  </g>

  <g opacity="0.5">
    <line x1="50" y1="50" x2="100" y2="100" stroke="#D4AF37" stroke-width="0.2" stroke-dasharray="2,2" />
    <line x1="150" y1="50" x2="100" y2="100" stroke="#D4AF37" stroke-width="0.2" stroke-dasharray="2,2" />
    <line x1="50" y1="150" x2="100" y2="100" stroke="#D4AF37" stroke-width="0.2" stroke-dasharray="2,2" />
    <line x1="150" y1="150" x2="100" y2="100" stroke="#D4AF37" stroke-width="0.2" stroke-dasharray="2,2" />
  </g>
</svg>
