<?xml version="1.0" encoding="UTF-8" standalone="no"?>
<svg width="200" height="100" viewBox="0 0 200 100" xmlns="http://www.w3.org/2000/svg">
  <defs>
    <linearGradient id="goldGradient" x1="0%" y1="0%" x2="100%" y2="100%">
      <stop offset="0%" style="stop-color:#8D6A3F;stop-opacity:1" />
      <stop offset="50%" style="stop-color:#F5E1A4;stop-opacity:1" />
      <stop offset="100%" style="stop-color:#C49A44;stop-opacity:1" />
    </linearGradient>
    <filter id="shadow" x="-10%" y="-10%" width="120%" height="120%">
      <feDropShadow dx="1" dy="1" stdDeviation="1" flood-color="#000" flood-opacity="0.3"/>
    </filter>
  </defs>

  <!-- Imperial emblem background -->
  <path d="M30,20 C30,10 100,10 100,20 L100,80 C100,90 30,90 30,80 Z" 
        fill="#6B2B2B" stroke="url(#goldGradient)" stroke-width="1" filter="url(#shadow)"/>
  
  <!-- Imperial center circle -->
  <circle cx="65" cy="50" r="20" fill="none" stroke="url(#goldGradient)" stroke-width="1.5" opacity="0.9" />
  
  <!-- Stylized imperial dragon -->
  <path d="M60,40 C70,35 75,45 65,50 C75,55 70,65 60,60 C55,70 45,70 40,60 C30,65 25,55 35,50 C25,45 30,35 40,40 C45,30 55,30 60,40Z" 
        fill="url(#goldGradient)" opacity="0.9"/>
  
  <!-- Center detail -->
  <circle cx="65" cy="50" r="5" fill="#6B2B2B" stroke="url(#goldGradient)" stroke-width="0.5" />
  
  <!-- Text section -->
  <text x="110" y="45" font-family="serif" font-weight="bold" font-size="18" fill="url(#goldGradient)" filter="url(#shadow)">
    HUẾ HERITAGE
  </text>
  <text x="110" y="65" font-family="serif" font-size="12" fill="#F5E1A4" opacity="0.9">
    DIGITAL TOUR GUIDE
  </text>
  
  <!-- Decorative lines -->
  <line x1="105" y1="30" x2="195" y2="30" stroke="url(#goldGradient)" stroke-width="0.5" opacity="0.8" />
  <line x1="105" y1="70" x2="195" y2="70" stroke="url(#goldGradient)" stroke-width="0.5" opacity="0.8" />
</svg>