<?xml version="1.0" encoding="UTF-8" standalone="no"?>
<svg width="240" height="140" viewBox="0 0 240 140" xmlns="http://www.w3.org/2000/svg">
  <defs>
    <linearGradient id="goldGradient" x1="0%" y1="0%" x2="100%" y2="100%">
      <stop offset="0%" style="stop-color:#8D6A3F;stop-opacity:1" />
      <stop offset="50%" style="stop-color:#F5E1A4;stop-opacity:1" />
      <stop offset="100%" style="stop-color:#C49A44;stop-opacity:1" />
    </linearGradient>
    <filter id="shadow" x="-10%" y="-10%" width="120%" height="120%">
      <feDropShadow dx="1" dy="1" stdDeviation="1" flood-color="#000" flood-opacity="0.3"/>
    </filter>
  </defs>

  <!-- Imperial emblem background -->
  <path d="M30,20 C30,10 100,10 100,20 L100,80 C100,90 30,90 30,80 Z" 
        fill="#6B2B2B" stroke="url(#goldGradient)" stroke-width="1" filter="url(#shadow)"/>
  
  <!-- Imperial center circle -->
  <circle cx="65" cy="50" r="20" fill="none" stroke="url(#goldGradient)" stroke-width="1.5" opacity="0.9" />
  
  <!-- Stylized imperial dragon -->
  <path d="M60,40 C70,35 75,45 65,50 C75,55 70,65 60,60 C55,70 45,70 40,60 C30,65 25,55 35,50 C25,45 30,35 40,40 C45,30 55,30 60,40Z" 
        fill="url(#goldGradient)" opacity="0.9"/>
  
  <!-- Center detail -->
  <circle cx="65" cy="50" r="5" fill="#6B2B2B" stroke="url(#goldGradient)" stroke-width="0.5" />
  
  <!-- Text section -->
  <text x="110" y="45" font-family="serif" font-weight="bold" font-size="18" fill="url(#goldGradient)" filter="url(#shadow)">
    HUẾ HERITAGE
  </text>
  <text x="110" y="65" font-family="serif" font-size="12" fill="#F5E1A4" opacity="0.9">
    DIGITAL TOUR GUIDE
  </text>
  
  <!-- Decorative lines -->
  <line x1="105" y1="30" x2="195" y2="30" stroke="url(#goldGradient)" stroke-width="0.5" opacity="0.8" />
  <line x1="105" y1="70" x2="195" y2="70" stroke="url(#goldGradient)" stroke-width="0.5" opacity="0.8" />

  <!-- New smaller logo -->
  <g transform="translate(200, 20)">
    <circle cx="20" cy="20" r="19" fill="none" stroke="#6B2B2B" stroke-width="1"/>
    <circle cx="20" cy="20" r="16" fill="none" stroke="#8D6A3F" stroke-width="0.5"/>
    <path d="M20,8 C26,8 32,14 32,20 C32,26 26,32 20,32 C14,32 8,26 8,20 C8,14 14,8 20,8" 
          fill="none" stroke="#8D6A3F" stroke-width="0.5"/>
    <path d="M15,15 C18,12 22,12 25,15 C28,18 28,22 25,25 C22,28 18,28 15,25 C12,22 12,18 15,15" 
          fill="#6B2B2B"/>
    <circle cx="20" cy="20" r="4" fill="#8D6A3F"/>
  </g>
</svg>